<svg xmlns="http://www.w3.org/2000/svg" viewBox="0 0 307.94 398.37"><defs><style>.cls-1{fill:none;}.cls-2{fill:#808285;}.cls-3{fill:#828282;}</style></defs><title>medium</title><g id="Layer_2" data-name="Layer 2"><g id="Layer_1-2" data-name="Layer 1"><path class="cls-1" d="M233.85,99.07c-5.53-18.94-16.88-31.4-28.78-38.69V198.84C231.23,195.88,246.24,141.54,233.85,99.07Z"/><path class="cls-2" d="M275.34,175.83c30.2-29.43,39.49-75.42,27.58-104.46S259,19.29,237.11,19.29c-8.51,0-20.52,3.93-32,8.74V20.29h-6.79V31C182.92,37.93,170,45.38,170,45.38c-35.94,17.41-65.11,34.21-74.54,51s-10.61,30.49-10.61,30.49-28.67-9.79-48.47-1.73C20.35,131.71,3,144.31.29,174.87s13.57,53.71,30.37,61.95,38.11,4.85,38.3,4.47c0-.28-3-6.25-3.11-6.4-3.63.59-12.88.67-13,.67-23.14,0-41.61-19.21-41.61-42.34a41.69,41.69,0,0,1,7.59-24,33,33,0,0,1,8.38-8.86,41.7,41.7,0,0,1,25.92-9c13.26,0,27.39,5.59,32.4,16.25-1.6,0-13.57-1.77-24.35,6.56-13,9.73-8.14,28.08-8.14,28.08,7.17-8,48.65-16.25,57.24,31.94S88,303.7,88,303.7c21.33-3.61,54.35-17.38,65.77-28,9.55-8.92,33.56-30.38,33.94-68.08A220.64,220.64,0,0,0,178,137.7c-3.06-9.72-7.21-19.81-14.62-38.42s-6.64-36.37,4.85-44.51c5.39-3.83,17.44-3.65,30,2l0,244.44c-16.91-5.45-73.51-11.54-113.36,15.54s-41.13,71-41.13,71c8.89-14.34,50.11-31.3,92.16-19s54.17,29.11,57.49,29.59l.07,0h0c1.22-.92,14.57-15.68,28.46-31.16,22.63-24.79,50.5-55.39,50.5-55.7,0-.51-4.58-4.62-5.1-4.62-.16,0-7.66,8.2-17.9,19.49-16.71-14-44.36-22.93-44.36-22.93v-97S245.14,205.26,275.34,175.83ZM205.07,60.38c11.9,7.29,23.25,19.76,28.78,38.69,12.39,42.46-2.62,96.81-28.78,99.76Z"/><path class="cls-3" d="M39.11,91.16C62.8,103.8,91,84.54,91,84.54s1.86-9.52,1.45-9.62c-1.06,0-9.82,7.27-21.5,9.91a54.44,54.44,0,0,1-11.78,1.46,28,28,0,0,1-12.71-2C35.4,79.84,29,69.95,32.06,62.17s10.8-10.87,25.67-6.07,25.85,12.31,54.16,9.2,49.17-25.71,56.81-40.71S173.25,0,173.25,0s-2,11.4-18.16,18.6S114,12.6,90.8,7.79,34,3.8,21.61,28.48,15.43,78.52,39.11,91.16Z"/></g></g></svg>