<?xml version="1.0" encoding="utf-8"?>
<!-- Generator: Adobe Illustrator 16.0.4, SVG Export Plug-In . SVG Version: 6.00 Build 0)  -->
<!DOCTYPE svg PUBLIC "-//W3C//DTD SVG 1.1//EN" "http://www.w3.org/Graphics/SVG/1.1/DTD/svg11.dtd">
<svg version="1.1" id="Layer_1" xmlns="http://www.w3.org/2000/svg" xmlns:xlink="http://www.w3.org/1999/xlink" x="0px" y="0px"
	 width="386.582px" height="500px" viewBox="206.667 0 386.582 500" enable-background="new 206.667 0 386.582 500"
	 xml:space="preserve">
<g>
	<g>
		<path fill="#FFFFFF" d="M449.587,500l-3.179-8.9c0,0,95.358-105.849,95.995-105.849c0.636,0,6.356,5.086,6.356,5.722
			C548.76,391.609,449.587,500,449.587,500z"/>
	</g>
	<path fill="#FFFFFF" d="M586.904,89.638c-14.939-36.554-54.99-65.48-82.646-65.48s-84.233,32.74-84.233,32.74
		c-45.137,21.933-81.691,42.912-93.452,64.208c-11.761,20.979-13.35,38.144-13.35,38.144s-35.918-12.397-60.712-2.225
		c-20.343,8.264-41.958,24.158-45.455,62.619c-3.497,38.461,17.165,67.387,38.144,77.875c20.979,10.489,47.68,6.041,47.998,5.723
		c0-0.318-3.814-7.947-3.814-7.947c-4.45,0.318-16.211,0.318-16.211,0.318c-28.926,0-52.13-24.157-52.13-53.083
		c0-11.125,3.497-21.615,9.536-30.197c2.861-4.45,6.357-8.264,10.489-11.125c8.9-6.993,20.343-11.443,32.422-11.443
		c16.529,0,34.329,6.993,40.687,20.343c-1.907,0-17.165-2.225-30.515,8.265c-16.211,12.079-10.171,35.283-10.171,35.283
		c8.9-10.171,61.03-20.343,71.837,40.051c10.808,60.395-27.972,87.413-27.972,87.413c26.701-4.45,68.341-21.934,82.645-35.283
		c12.079-11.125,42.275-38.144,42.594-85.506c0.953-39.415-6.993-71.519-12.079-87.73c-3.813-12.079-8.899-24.793-18.436-48.315
		s-8.265-45.772,6.039-55.944c14.304-10.172,66.751,2.225,82.327,55.626c15.575,53.401-3.18,121.424-36.236,125.238V25.429h-8.583
		V377.94c-21.297-6.993-92.18-14.622-142.403,19.39c-50.223,34.012-51.494,89.002-51.494,89.002
		c11.125-18.118,62.937-39.415,115.703-23.84s68.022,36.555,72.155,37.188c1.271,0,76.605-84.552,76.605-84.552
		c-19.391-20.979-61.666-34.646-61.666-34.646V259.059c0,0,50.223-1.271,88.048-38.46C590.4,183.726,601.844,126.192,586.904,89.638
		z"/>
	<path fill="#FFFFFF" d="M424.157,0c0,0-2.542,14.304-22.886,23.204c-20.025,9.218-51.495-7.311-80.419-13.351
		c-29.244-6.039-71.202-5.085-86.777,26.065c-15.576,31.151-7.947,62.619,21.615,78.513c29.879,15.893,65.162-8.265,65.162-8.265
		s2.225-12.079,1.907-12.079c-1.271,0-12.397,9.218-27.019,12.396c-5.086,1.271-9.854,1.907-14.94,1.907
		c-5.085,0.318-10.489-0.318-15.893-2.543c-13.986-5.404-21.933-18.118-18.118-27.654c3.814-9.854,13.668-13.668,32.104-7.628
		s32.74,15.257,68.34,11.443c35.601-3.814,61.667-32.422,71.202-51.176C427.972,12.079,424.157,0,424.157,0z"/>
</g>
</svg>
